# xmcd
#
# Track frame offsets: 
#        182
#        21617
#        35400
#        53080
#        71962
#        90827
#        108972
#        130030
#        150022
#        173427
#        195405
#        217887
#        244582
#        259837
#        284200
#
# Disc length: 4175 seconds
#
# Revision: 0
# Processed by: cddbd v1.4PL0 Copyright (c) Steve Scherf et al.
# Submitted via: ExactAudioCopy v0.90b3
#
DISCID=c4104d0f
DTITLE=Elton John and Bernie Jaupin - The Songs of Elton John and Bernie
DTITLE=Jaupin 1974 - 19793 CD2
DYEAR=1900
DGENRE=
TTITLE0=I Guess That's Why They Call It The Blues
TTITLE1=I'm Still Standing
TTITLE2=Kiss The Bride
TTITLE3=Sad Songs (Say So Much)
TTITLE4=Nikita
TTITLE5=I Don't Wanna Go On With You Like That
TTITLE6=A Word In Spanish
TTITLE7=Healing Hands
TTITLE8=Sacrifice
TTITLE9=Club At The End Of The Street
TTITLE10=You Gotta Love Someone
TTITLE11=The One
TTITLE12=The Last Song
TTITLE13=Runaway Train
TTITLE14=Simple Life
EXTD=
EXTT0=
EXTT1=
EXTT2=
EXTT3=
EXTT4=
EXTT5=
EXTT6=
EXTT7=
EXTT8=
EXTT9=
EXTT10=
EXTT11=
EXTT12=
EXTT13=
EXTT14=
PLAYORDER=
